<svg width="33" height="33" viewBox="0 0 33 33" fill="none" xmlns="http://www.w3.org/2000/svg">
<path fill-rule="evenodd" clip-rule="evenodd" d="M30.8799 13C31.3109 13 31.7242 12.8288 32.0289 12.524C32.3337 12.2193 32.5049 11.806 32.5049 11.375V1.625C32.5049 1.19402 32.3337 0.780698 32.0289 0.475951C31.7242 0.171205 31.3109 0 30.8799 0H21.125C20.694 0 20.2807 0.171205 19.976 0.475951C19.6712 0.780698 19.5 1.19402 19.5 1.625C19.5 2.05598 19.6712 2.4693 19.976 2.77405C20.2807 3.0788 20.694 3.25 21.125 3.25H26.9587L12.9724 17.2364C12.6764 17.5429 12.5126 17.9533 12.5163 18.3794C12.52 18.8055 12.6909 19.213 12.9922 19.5143C13.2935 19.8156 13.701 19.9865 14.1271 19.9902C14.5532 19.9939 14.9636 19.8301 15.2701 19.5341L29.2565 5.54775V11.375C29.2565 11.806 29.4277 12.2193 29.7325 12.524C30.0372 12.8288 30.4489 13 30.8799 13ZM4.875 4.875C3.58207 4.875 2.34209 5.38861 1.42785 6.30285C0.513615 7.21709 0 8.45707 0 9.75V27.625C0 28.9179 0.513615 30.1579 1.42785 31.0721C2.34209 31.9864 3.58207 32.5 4.875 32.5H22.75C24.0429 32.5 25.2829 31.9864 26.1971 31.0721C27.1114 30.1579 27.625 28.9179 27.625 27.625V17.875C27.625 17.444 27.4538 17.0307 27.149 16.726C26.8443 16.4212 26.431 16.25 26 16.25C25.569 16.25 25.1557 16.4212 24.851 16.726C24.5462 17.0307 24.375 17.444 24.375 17.875V27.625C24.375 28.056 24.2038 28.4693 23.899 28.774C23.5943 29.0788 23.181 29.25 22.75 29.25H4.875C4.44402 29.25 4.0307 29.0788 3.72595 28.774C3.42121 28.4693 3.25 28.056 3.25 27.625V9.75C3.25 9.31902 3.42121 8.9057 3.72595 8.60095C4.0307 8.29621 4.44402 8.125 4.875 8.125H14.625C15.056 8.125 15.4693 7.95379 15.774 7.64905C16.0788 7.3443 16.25 6.93098 16.25 6.5C16.25 6.06902 16.0788 5.6557 15.774 5.35095C15.4693 5.04621 15.056 4.875 14.625 4.875H4.875Z" fill="#D7282F"/>
</svg>
