<svg width="19" height="19" viewBox="0 0 19 19" fill="none" xmlns="http://www.w3.org/2000/svg">
<path fill-rule="evenodd" clip-rule="evenodd" d="M16.4086 7.8125C16.6158 7.8125 16.8145 7.73019 16.961 7.58368C17.1075 7.43716 17.1898 7.23845 17.1898 7.03125V2.34375C17.1898 2.13655 17.1075 1.93784 16.961 1.79132C16.8145 1.64481 16.6158 1.5625 16.4086 1.5625H11.7188C11.5115 1.5625 11.3128 1.64481 11.1663 1.79132C11.0198 1.93784 10.9375 2.13655 10.9375 2.34375C10.9375 2.55095 11.0198 2.74966 11.1663 2.89618C11.3128 3.04269 11.5115 3.125 11.7188 3.125H14.5234L7.79922 9.84922C7.65691 9.99656 7.57816 10.1939 7.57994 10.3988C7.58172 10.6036 7.66389 10.7995 7.80874 10.9444C7.95359 11.0892 8.14953 11.1714 8.35437 11.1732C8.55922 11.175 8.75656 11.0962 8.90391 10.9539L15.6281 4.22969V7.03125C15.6281 7.23845 15.7104 7.43716 15.8569 7.58368C16.0035 7.73019 16.2014 7.8125 16.4086 7.8125ZM3.90625 3.90625C3.28465 3.90625 2.68851 4.15318 2.24897 4.59272C1.80943 5.03226 1.5625 5.6284 1.5625 6.25V14.8438C1.5625 15.4654 1.80943 16.0615 2.24897 16.501C2.68851 16.9406 3.28465 17.1875 3.90625 17.1875H12.5C13.1216 17.1875 13.7177 16.9406 14.1573 16.501C14.5968 16.0615 14.8438 15.4654 14.8438 14.8438V10.1562C14.8438 9.94905 14.7614 9.75034 14.6149 9.60382C14.4684 9.45731 14.2697 9.375 14.0625 9.375C13.8553 9.375 13.6566 9.45731 13.5101 9.60382C13.3636 9.75034 13.2812 9.94905 13.2812 10.1562V14.8438C13.2812 15.051 13.1989 15.2497 13.0524 15.3962C12.9059 15.5427 12.7072 15.625 12.5 15.625H3.90625C3.69905 15.625 3.50034 15.5427 3.35382 15.3962C3.20731 15.2497 3.125 15.051 3.125 14.8438V6.25C3.125 6.0428 3.20731 5.84409 3.35382 5.69757C3.50034 5.55106 3.69905 5.46875 3.90625 5.46875H8.59375C8.80095 5.46875 8.99966 5.38644 9.14618 5.23993C9.29269 5.09341 9.375 4.8947 9.375 4.6875C9.375 4.4803 9.29269 4.28159 9.14618 4.13507C8.99966 3.98856 8.80095 3.90625 8.59375 3.90625H3.90625Z" fill="white"/>
</svg>
